<svg width="4851" height="450" viewBox="0 0 4851 450" fill="none" xmlns="http://www.w3.org/2000/svg">
<path d="M161 254.5L178 234.5H208.5L237 91C228.5 89.6667 222.583 89 219.25 89C192.583 89 169.833 98.6667 151 118C132.333 137.333 123 160.667 123 188V191.5L74.5 215.25C82.1667 117.083 150.833 68 280.5 68H294L261 234.5H415.25L430 159.75C439.667 110.583 458.75 71.6667 487.25 43C515.917 14.3333 549.75 0 588.75 0C604.083 0 617.75 2.08333 629.75 6.25L608.25 43.5C591.083 28.8333 575.5 21.5 561.5 21.5C543.833 21.5 529.667 28.9167 519 43.75C508.5 58.5833 499.5 83.8333 492 119.5L452 306.5C443.5 346.667 439.25 373.25 439.25 386.25C439.25 403.417 448.583 412 467.25 412C475.417 412 487.083 411.083 502.25 409.25L499 425L372.75 447.25L411.25 254.5H257L251 284.25C241.5 331.417 220.667 369.917 188.5 399.75C156.333 429.417 119.417 444.25 77.75 444.25C46.9167 444.25 21 434.75 0 415.75L35 379.75C51 407.25 74.3333 421 105 421C149.167 421 178.333 385.5 192.5 314.5L204.5 254.5H161ZM771.5 302.25H767.25C719.917 396.917 673.75 444.25 628.75 444.25C602.083 444.25 588.75 428.5 588.75 397C588.75 388 590.083 376.75 592.75 363.25L617 240.5C620.833 221.333 622.75 208.833 622.75 203C622.75 192.667 617.833 187.5 608 187.5C591.667 187.5 566.833 205.75 533.5 242.25L538 219.25C574.333 180.083 607.083 160.5 636.25 160.5C660.417 160.5 672.5 173 672.5 198C672.5 206.333 670.5 220.5 666.5 240.5L642 363.5C639.833 374.5 638.75 382.333 638.75 387C638.75 400.5 643.667 407.25 653.5 407.25C666 407.25 684.917 392.167 710.25 362C735.75 331.667 759.167 296.417 780.5 256.25L798.5 166.5L851.5 163.5L833 240.5L808.5 364C804.667 383.167 802.75 395.667 802.75 401.5C802.75 412 807.667 417.25 817.5 417.25C834 417.25 858.833 398.917 892 362.25L887.5 385.5C851 424.667 818.25 444.25 789.25 444.25C765.083 444.25 753 431.667 753 406.5C753 398 755 383.833 759 364L771.5 302.25ZM881.25 429.5L914 395.75C935.667 411.583 957.75 419.5 980.25 419.5C994.083 419.5 1005.75 415.917 1015.25 408.75C1024.75 401.417 1029.5 392.417 1029.5 381.75C1029.5 369.917 1020.08 353.75 1001.25 333.25L978.5 308.25C956.333 283.917 945.25 263.583 945.25 247.25C945.25 224.583 956 204.5 977.5 187C999 169.333 1023.58 160.5 1051.25 160.5C1066.42 160.5 1083.42 163.667 1102.25 170L1091.25 225.25H1075.5L1076.25 221C1076.58 219.5 1076.75 217.75 1076.75 215.75C1076.75 193.25 1062.25 182 1033.25 182C1000.75 182 984.5 195 984.5 221C984.5 234.167 994.167 251.667 1013.5 273.5L1034 296.25C1056.33 321.417 1067.5 342.083 1067.5 358.25C1067.5 380.583 1055.67 400.5 1032 418C1008.33 435.5 981.417 444.25 951.25 444.25C930.083 444.25 906.75 439.333 881.25 429.5ZM1112.25 429.5L1145 395.75C1166.67 411.583 1188.75 419.5 1211.25 419.5C1225.08 419.5 1236.75 415.917 1246.25 408.75C1255.75 401.417 1260.5 392.417 1260.5 381.75C1260.5 369.917 1251.08 353.75 1232.25 333.25L1209.5 308.25C1187.33 283.917 1176.25 263.583 1176.25 247.25C1176.25 224.583 1187 204.5 1208.5 187C1230 169.333 1254.58 160.5 1282.25 160.5C1297.42 160.5 1314.42 163.667 1333.25 170L1322.25 225.25H1306.5L1307.25 221C1307.58 219.5 1307.75 217.75 1307.75 215.75C1307.75 193.25 1293.25 182 1264.25 182C1231.75 182 1215.5 195 1215.5 221C1215.5 234.167 1225.17 251.667 1244.5 273.5L1265 296.25C1287.33 321.417 1298.5 342.083 1298.5 358.25C1298.5 380.583 1286.67 400.5 1263 418C1239.33 435.5 1212.42 444.25 1182.25 444.25C1161.08 444.25 1137.75 439.333 1112.25 429.5ZM1595.25 369.75L1591.5 389C1538.5 425.833 1493.33 444.25 1456 444.25C1432.33 444.25 1413.08 436 1398.25 419.5C1383.58 402.833 1376.25 381.333 1376.25 355C1376.25 308 1394.25 263.833 1430.25 222.5C1466.25 181 1504.67 160.25 1545.5 160.25C1560.33 160.25 1572.33 165.25 1581.5 175.25C1590.67 185.25 1595.25 198.25 1595.25 214.25C1595.25 246.25 1578.92 273.75 1546.25 296.75C1513.58 319.75 1474.58 331.25 1429.25 331.25L1429 342.5C1429 391.167 1446.83 415.5 1482.5 415.5C1513.33 415.5 1550.92 400.25 1595.25 369.75ZM1429.75 315.75C1467.08 312.75 1496.25 303.167 1517.25 287C1538.25 270.667 1548.75 249.583 1548.75 223.75C1548.75 198.25 1539.5 185.5 1521 185.5C1501 185.5 1481.67 198.833 1463 225.5C1444.33 252 1433.25 282.083 1429.75 315.75ZM1825 362.25L1820.5 385.5C1784 424.667 1751.25 444.25 1722.25 444.25C1698.25 444.25 1686.25 431.667 1686.25 406.5C1686.25 398 1688.17 384 1692 364.5L1709.25 277.5C1713.92 252.833 1716.25 236.417 1716.25 228.25C1716.25 214.25 1710.83 207.25 1700 207.25C1692.5 207.25 1679.08 210.167 1659.75 216L1662.75 200.5L1785 160.5L1766 240.5L1741.5 364C1737.67 383.333 1735.75 395.667 1735.75 401C1735.75 411.833 1740.67 417.25 1750.5 417.25C1767 417.25 1791.83 398.917 1825 362.25ZM1733.25 117L1750 83L1820.5 37L1799 83L1733.25 117ZM1863.75 441L1882.25 364L1906.75 240.5C1910.58 221.333 1912.5 208.833 1912.5 203C1912.5 192.667 1907.58 187.5 1897.75 187.5C1881.42 187.5 1856.58 205.75 1823.25 242.25L1827.75 219.25C1864.08 180.083 1896.83 160.5 1926 160.5C1950 160.5 1962 173 1962 198C1962 206.5 1960.08 220.667 1956.25 240.5L1944 302.25H1947.75C1968.58 259.583 1992.08 225.333 2018.25 199.5C2044.58 173.5 2069.08 160.5 2091.75 160.5C2119.08 160.5 2132.75 175.667 2132.75 206C2132.75 215.833 2131.33 227.833 2128.5 242L2104.25 364C2100.42 383.333 2098.5 395.833 2098.5 401.5C2098.5 412 2103.42 417.25 2113.25 417.25C2129.92 417.25 2154.83 398.917 2188 362.25L2183.25 385.5C2146.92 424.667 2114.17 444.25 2085 444.25C2061 444.25 2049 431.667 2049 406.5C2049 398.167 2051 384 2055 364L2079.25 241.5C2081.25 232 2082.25 224 2082.25 217.5C2082.25 204 2077.25 197.25 2067.25 197.25C2035.42 197.25 1991.25 247.75 1934.75 348.75L1916.5 438L1863.75 441ZM2350.5 415L2386.25 378.25C2403.08 405.917 2426.5 419.75 2456.5 419.75C2476.17 419.75 2493.58 411.417 2508.75 394.75C2523.92 378.083 2534.25 356 2539.75 328.5L2587 91C2578.5 89.6667 2572.58 89 2569.25 89C2541.75 89 2518.83 98.8333 2500.5 118.5C2482.17 138 2473 162.333 2473 191.5L2424.5 215.25C2428 168.75 2446.58 132.583 2480.25 106.75C2513.92 80.9167 2559.17 68 2616 68H2636.25C2667.08 153.833 2689.58 242.083 2703.75 332.75L2867.75 68L2921.25 61.75L2902.25 142L2861.5 346.25C2858 364.417 2856.25 378.917 2856.25 389.75C2856.25 404.417 2865.17 411.75 2883 411.75C2891.83 411.75 2903.67 410.833 2918.5 409L2915.25 425L2791.75 449.5L2856.5 124L2685.5 398L2659.75 402V394.75C2659.75 329.583 2643.83 248.667 2612 152L2591.5 254C2566.5 379.833 2512 442.75 2428 442.75C2398.67 442.75 2372.83 433.5 2350.5 415ZM3188.5 302.25H3184.25C3136.92 396.917 3090.75 444.25 3045.75 444.25C3019.08 444.25 3005.75 428.5 3005.75 397C3005.75 388 3007.08 376.75 3009.75 363.25L3034 240.5C3037.83 221.333 3039.75 208.833 3039.75 203C3039.75 192.667 3034.83 187.5 3025 187.5C3008.67 187.5 2983.83 205.75 2950.5 242.25L2955 219.25C2991.33 180.083 3024.08 160.5 3053.25 160.5C3077.42 160.5 3089.5 173 3089.5 198C3089.5 206.333 3087.5 220.5 3083.5 240.5L3059 363.5C3056.83 374.5 3055.75 382.333 3055.75 387C3055.75 400.5 3060.67 407.25 3070.5 407.25C3083 407.25 3101.92 392.167 3127.25 362C3152.75 331.667 3176.17 296.417 3197.5 256.25L3215.5 166.5L3268.5 163.5L3250 240.5L3225.5 364C3221.67 383.167 3219.75 395.667 3219.75 401.5C3219.75 412 3224.67 417.25 3234.5 417.25C3251 417.25 3275.83 398.917 3309 362.25L3304.5 385.5C3268 424.667 3235.25 444.25 3206.25 444.25C3182.08 444.25 3170 431.667 3170 406.5C3170 398 3172 383.833 3176 364L3188.5 302.25ZM3326 441L3344.5 364L3378.75 191.25C3390.75 130.917 3413.33 84 3446.5 50.5C3479.83 16.8333 3520.33 0 3568 0C3584.5 0 3599.5 1.75 3613 5.25L3578.75 41C3559.25 32.1667 3542.58 27.75 3528.75 27.75C3506.58 27.75 3488.33 35.3333 3474 50.5C3465.67 59.3333 3459.08 70.4167 3454.25 83.75C3449.58 97.0833 3442.5 124.667 3433 166.5L3408.25 275.75H3411.25C3426.92 241.417 3447.5 213.667 3473 192.5C3498.67 171.167 3524.25 160.5 3549.75 160.5C3577.92 160.5 3592 174.083 3592 201.25C3592 229.583 3580.5 253.333 3557.5 272.5C3534.5 291.667 3501.75 304.75 3459.25 311.75C3506.58 377.417 3541.67 410.25 3564.5 410.25C3579 410.25 3597.08 400.167 3618.75 380L3615.25 397.75C3582.08 428.75 3555.58 444.25 3535.75 444.25C3519.75 444.25 3503.58 436.417 3487.25 420.75C3471.08 404.917 3443.08 370.083 3403.25 316.25L3379 438L3326 441ZM3406 302.25L3405.5 305.5H3414C3449 305.5 3479.25 296 3504.75 277C3530.25 258 3543 235.583 3543 209.75C3543 193.417 3536.5 185.25 3523.5 185.25C3495.33 185.25 3456.17 224.25 3406 302.25ZM3647.75 441L3666.25 364L3700.5 191.25C3712.5 130.917 3735.08 84 3768.25 50.5C3801.58 16.8333 3842.08 0 3889.75 0C3906.25 0 3921.25 1.75 3934.75 5.25L3900.5 41C3881 32.1667 3864.33 27.75 3850.5 27.75C3824 27.75 3804.08 37.4167 3790.75 56.75C3777.42 75.9167 3765.42 112.5 3754.75 166.5L3727.75 302.25H3731.75C3752.42 259.583 3775.92 225.333 3802.25 199.5C3828.58 173.5 3853 160.5 3875.5 160.5C3903 160.5 3916.75 175.667 3916.75 206C3916.75 216 3915.33 228 3912.5 242L3888.25 364C3884.42 383.167 3882.5 395.667 3882.5 401.5C3882.5 412 3887.42 417.25 3897.25 417.25C3913.92 417.25 3938.75 398.917 3971.75 362.25L3967.25 385.5C3930.75 424.667 3898 444.25 3869 444.25C3845 444.25 3833 431.667 3833 406.5C3833 398.167 3834.92 384 3838.75 364L3863.25 241.5C3865.08 232 3866 224 3866 217.5C3866 204 3861 197.25 3851 197.25C3819.33 197.25 3775.17 247.75 3718.5 348.75L3700.5 438L3647.75 441ZM4058.25 185H4001L4018.25 166.5H4061.75L4076 95.75L4127.75 83.25L4111.25 166.5H4205.5L4185 188.5C4163.5 186.167 4144.42 185 4127.75 185H4107.5L4073.5 356.25C4070 373.917 4068.25 386.333 4068.25 393.5C4068.25 406.667 4074.08 413.25 4085.75 413.25C4103.75 413.25 4128.33 399.917 4159.5 373.25L4155 396.25C4122.67 428.25 4091.58 444.25 4061.75 444.25C4033.42 444.25 4019.25 428.583 4019.25 397.25C4019.25 386.083 4021.08 371.25 4024.75 352.75L4058.25 185ZM4424 302.25H4419.5C4400.67 344.083 4378 378.25 4351.5 404.75C4325 431.083 4300.17 444.25 4277 444.25C4241.83 444.25 4224.25 422.25 4224.25 378.25C4224.25 329.75 4243.58 282.25 4282.25 235.75C4322.25 187.583 4371.08 163.5 4428.75 163.5C4452.58 163.5 4477.5 164.5 4503.5 166.5L4485.5 240.5L4461.25 364C4457.42 383.333 4455.5 395.833 4455.5 401.5C4455.5 412 4460.42 417.25 4470.25 417.25C4486.92 417.25 4511.75 398.917 4544.75 362.25L4540.25 385.5C4503.75 424.667 4471 444.25 4442 444.25C4417.83 444.25 4405.75 431.667 4405.75 406.5C4405.75 398.167 4407.75 384 4411.75 364L4424 302.25ZM4444 202.25C4423 192.917 4402.25 188.25 4381.75 188.25C4351.42 188.25 4327.17 207.417 4309 245.75C4287.67 291.083 4277 331.833 4277 368C4277 394.167 4284.67 407.25 4300 407.25C4314.33 407.25 4334.92 392.25 4361.75 362.25C4388.75 332.083 4412.42 297.667 4432.75 259L4444 202.25ZM4591 441L4609.5 364L4633.75 241.75C4636.25 229.417 4637.5 218.75 4637.5 209.75C4637.5 195.417 4632.5 188.25 4622.5 188.25C4604.83 188.25 4579.58 207.083 4546.75 244.75L4551.25 222.5C4589.75 181 4623.17 160.25 4651.5 160.25C4675.5 160.25 4687.5 174 4687.5 201.5C4687.5 213.667 4686 227.167 4683 242L4671 302.25H4674.25C4694.08 260.583 4717.5 226.583 4744.5 200.25C4771.67 173.75 4796.5 160.5 4819 160.5C4830.67 160.5 4841.08 163.083 4850.25 168.25L4817 213.25C4807.17 206.75 4798.83 203.5 4792 203.5C4759.5 203.5 4716.25 251.25 4662.25 346.75L4644 438L4591 441Z" fill="url(#paint0_linear_138_2)"/>
<defs>
<linearGradient id="paint0_linear_138_2" x1="-20" y1="-93" x2="4450.85" y2="1568.01" gradientUnits="userSpaceOnUse">
<stop offset="0.297534" stop-color="#058FB3"/>
<stop offset="1" stop-color="#04F9B9"/>
</linearGradient>
</defs>
</svg>
